<svg xmlns="http://www.w3.org/2000/svg" viewBox="0 0 31.7 44.71"><defs><style>.cls-1{fill:#b5d2b6;stroke:#716f6f;stroke-miterlimit:10;stroke-width:0.7px;}.cls-2{fill:#fff;}</style></defs><title>ACTION_1</title><g id="Layer_2" data-name="Layer 2"><g id="Layer_1-2" data-name="Layer 1"><path class="cls-1" d="M.36,15.6h0c0,.16,0,.33,0,.5a15.43,15.43,0,0,0,.09,1.67C1.59,33.87,15.17,44.07,15.17,44.07a1,1,0,0,0,.68.29.92.92,0,0,0,.67-.29s13.59-10.2,14.74-26.29a15.43,15.43,0,0,0,.09-1.67c0-.17,0-.34,0-.5h0A15.62,15.62,0,0,0,15.85.35,15.61,15.61,0,0,0,.36,15.6"/><path class="cls-2" d="M22.37,11.67a1.88,1.88,0,1,1,1.86-1.83,1.86,1.86,0,0,1-1.86,1.83"/><path class="cls-2" d="M7.26,22.92a1,1,0,0,0,.55,1.54,1,1,0,0,0,.94-.35C10.83,22,12.91,19.85,15,17.72l-.58-.6,0,0a1.55,1.55,0,0,1-.5-.95L7.54,22.61a2.7,2.7,0,0,0-.28.31"/><path class="cls-2" d="M23.89,15.23a6.46,6.46,0,0,0-1,0l-1.67.12c0-.69.05-1.33.08-2A1.58,1.58,0,0,0,21,12.31c-.26-.31-.54-.59-.82-.88l-2.5-2.61a.93.93,0,0,0-1.42-.1c-.78.71-1.56,1.44-2.33,2.17a.93.93,0,0,0,0,1.37.9.9,0,0,0,1.33,0c.37-.33.73-.67,1.09-1l.52-.47L18,12a2.54,2.54,0,0,0-.23.2l-1.92,2h0l-.69.7-.07.07c-.94,1-.4,1.55-.27,1.67l.07.07s1.19,1.19,1.48,1.5L18.18,20l-1.63.16c-.72.07-1.44.13-2.16.23a.84.84,0,0,0-.74.86.9.9,0,0,0,.63,1,1.9,1.9,0,0,0,.63,0l5.27-.52a1,1,0,0,0,.92-.64,1,1,0,0,0-.29-1.1c-.55-.56-1.09-1.14-1.63-1.71L17.7,16.77l1.6-1.5c0,.38,0,.74,0,1.09a.94.94,0,0,0,1.05,1q1.74-.12,3.48-.27a1,1,0,0,0,.05-1.88"/></g></g></svg>