<svg xmlns="http://www.w3.org/2000/svg" viewBox="0 0 31.7 44.71"><defs><style>.cls-1{fill:#bee3ed;stroke:#716f6f;stroke-miterlimit:10;stroke-width:0.7px;}.cls-2{fill:#fff;}</style></defs><title>BEACH_1</title><g id="Layer_2" data-name="Layer 2"><g id="Layer_1-2" data-name="Layer 1"><path class="cls-1" d="M.36,15.6h0c0,.16,0,.33,0,.5a15.43,15.43,0,0,0,.09,1.67C1.59,33.87,15.17,44.07,15.17,44.07a1,1,0,0,0,.68.29.92.92,0,0,0,.67-.29s13.59-10.2,14.74-26.29a15.43,15.43,0,0,0,.09-1.67c0-.17,0-.34,0-.5h0A15.62,15.62,0,0,0,15.85.35,15.61,15.61,0,0,0,.36,15.6"/><path class="cls-2" d="M15.86,11.81a12.1,12.1,0,0,0-5.15,4.59c-.14-1.44.2-4.09,1.87-5.42a8.21,8.21,0,0,0-2.19.45,4.91,4.91,0,0,0-2,1.11A4.7,4.7,0,0,1,10.46,9.6a6.89,6.89,0,0,1,3.54-1,4.27,4.27,0,0,0-1.79-1.08,3.73,3.73,0,0,0-2,0,5.61,5.61,0,0,1,3.11-1.05,3.78,3.78,0,0,1,2.93,1.44c1.59-1.44,3.32-2,5.32-.89a3,3,0,0,0-1.84.58A6,6,0,0,0,18.29,9a5,5,0,0,1,5.07,2.88,7.94,7.94,0,0,0-3.66-.8c1,1.28.84,2.7.66,4.21a19.19,19.19,0,0,0-3.56-3.75c-.05.44-.1.81-.13,1.18a38.78,38.78,0,0,0,0,5.17l.21,3.17c0,.15,0,.3,0,.45s.07.22.23.24c.72.07,1.43.11,2.14.24a20.54,20.54,0,0,1,2.14.58c.27.09.57.23.57.59s-.33.49-.59.57a16.2,16.2,0,0,1-2.16.53,22.22,22.22,0,0,1-4.54.18,15.86,15.86,0,0,1-4-.6,3.91,3.91,0,0,1-.91-.41c-.39-.25-.4-.6,0-.81a5.11,5.11,0,0,1,1.49-.53c1.12-.18,2.26-.27,3.4-.37.22,0,.31-.06.3-.31,0-.7-.05-1.4,0-2.1A31.77,31.77,0,0,1,15.83,12,.9.9,0,0,0,15.86,11.81Z"/></g></g></svg>